<?xml version="1.0" encoding="UTF-8"?>
<!DOCTYPE svg PUBLIC "-//W3C//DTD SVG 1.1//EN" "http://www.w3.org/Graphics/SVG/1.1/DTD/svg11.dtd">
<svg xmlns="http://www.w3.org/2000/svg" version="1.1" width="300px" height="139px" style="shape-rendering:geometricPrecision; text-rendering:geometricPrecision; image-rendering:optimizeQuality; fill-rule:evenodd; clip-rule:evenodd" xmlns:xlink="http://www.w3.org/1999/xlink">
<g><path style="opacity:0.988" fill="#2f2c36" d="M 139.5,-0.5 C 140.5,-0.5 141.5,-0.5 142.5,-0.5C 144.973,1.14316 146.973,3.30982 148.5,6C 170.158,7.16197 191.824,7.4953 213.5,7C 216.062,4.26704 218.729,1.76704 221.5,-0.5C 224.167,-0.5 226.833,-0.5 229.5,-0.5C 233.115,2.97825 237.115,5.97825 241.5,8.5C 245.495,6.83628 249.495,5.16961 253.5,3.5C 257.452,3.94929 259.452,6.11595 259.5,10C 258.627,13.9203 257.794,17.7536 257,21.5C 261.667,22.1667 266.333,22.8333 271,23.5C 280.235,51.0438 289.735,78.3772 299.5,105.5C 299.5,107.167 299.5,108.833 299.5,110.5C 296.158,113.992 293.158,117.825 290.5,122C 243.835,122.5 197.168,122.667 150.5,122.5C 150.5,127.833 150.5,133.167 150.5,138.5C 126.833,138.5 103.167,138.5 79.5,138.5C 80.8335,133.166 82.1669,127.833 83.5,122.5C 55.5,122.5 27.5,122.5 -0.5,122.5C -0.5,121.167 -0.5,119.833 -0.5,118.5C 13.9098,84.4574 28.2432,50.2908 42.5,16C 53.0437,10.2713 64.377,7.77133 76.5,8.5C 77.1062,6.29063 77.7728,4.12396 78.5,2C 96.1667,1.33333 113.833,1.33333 131.5,2C 132.227,3.39881 132.727,4.89881 133,6.5C 134.694,3.64238 136.861,1.30904 139.5,-0.5 Z"/></g>
<g><path style="opacity:1" fill="#ebe416" d="M 214.5,8.5 C 216.048,8.82124 216.715,9.82124 216.5,11.5C 216.5,11.8333 216.5,12.1667 216.5,12.5C 191.833,12.5 167.167,12.5 142.5,12.5C 141.832,5.13188 140.165,4.79854 137.5,11.5C 133.833,11.5 130.167,11.5 126.5,11.5C 126.5,9.83333 126.5,8.16667 126.5,6.5C 112.323,6.17085 98.3234,6.50418 84.5,7.5C 83.4192,10.6267 82.7526,13.9601 82.5,17.5C 72.8276,17.3335 63.1609,17.5002 53.5,18C 51.2537,19.0395 49.087,20.2062 47,21.5C 45.4518,25.9849 43.6185,30.3182 41.5,34.5C 40.3121,33.3157 39.1455,33.3157 38,34.5C 37.5357,33.9056 37.369,33.2389 37.5,32.5C 39.2038,27.2224 41.2038,22.0558 43.5,17C 47.2857,15.6074 50.9523,13.9407 54.5,12C 62.4931,11.5003 70.4931,11.3336 78.5,11.5C 78.448,9.09709 78.7814,6.76375 79.5,4.5C 96.5,4.5 113.5,4.5 130.5,4.5C 130.232,6.09903 130.566,7.43236 131.5,8.5C 134.05,8.43925 135.55,7.10591 136,4.5C 137.117,2.8757 138.617,1.8757 140.5,1.5C 143.609,2.77379 145.942,4.94046 147.5,8C 169.831,8.49996 192.164,8.66663 214.5,8.5 Z"/></g>
<g><path style="opacity:1" fill="#211f1f" d="M 216.5,12.5 C 216.389,13.1174 216.056,13.6174 215.5,14C 191.152,14.2375 166.819,14.7375 142.5,15.5C 140.794,11.6463 139.127,11.8129 137.5,16C 135.833,16.3333 134.167,16.6667 132.5,17C 133.899,18.0616 134.899,19.395 135.5,21C 133.943,24.064 133.11,27.2306 133,30.5C 134.719,28.4429 136.719,26.7763 139,25.5C 141.281,26.7763 143.281,28.4429 145,30.5C 145.464,29.9056 145.631,29.2389 145.5,28.5C 146.568,31.1222 147.568,33.7888 148.5,36.5C 145.518,34.5258 142.518,32.5258 139.5,30.5C 135.75,32.3633 132.417,34.6966 129.5,37.5C 128.539,39.2646 128.205,41.2646 128.5,43.5C 127.517,47.2984 127.183,51.2984 127.5,55.5C 126.521,58.6248 126.187,61.9581 126.5,65.5C 129.167,65.5 131.833,65.5 134.5,65.5C 134.5,63.5 134.5,61.5 134.5,59.5C 136.833,59.5 139.167,59.5 141.5,59.5C 141.5,61.5 141.5,63.5 141.5,65.5C 144.167,65.5 146.833,65.5 149.5,65.5C 149.5,62.1667 149.5,58.8333 149.5,55.5C 149.5,53.8333 149.5,52.1667 149.5,50.5C 149.5,46.1667 149.5,41.8333 149.5,37.5C 150.33,46.324 150.83,55.324 151,64.5C 151.383,65.056 151.883,65.3893 152.5,65.5C 152.833,65.5 153.167,65.5 153.5,65.5C 158.5,65.5 163.5,65.5 168.5,65.5C 168.833,65.5 169.167,65.5 169.5,65.5C 171.369,63.3647 172.036,60.6981 171.5,57.5C 172.473,59.9479 172.806,62.6146 172.5,65.5C 177.833,65.5 183.167,65.5 188.5,65.5C 188.5,64.1667 188.5,62.8333 188.5,61.5C 185.5,61.5 182.5,61.5 179.5,61.5C 179.5,57.5 179.5,53.5 179.5,49.5C 181.5,49.5 183.5,49.5 185.5,49.5C 185.5,47.8333 185.5,46.1667 185.5,44.5C 183.167,44.5 180.833,44.5 178.5,44.5C 178.5,41.8333 178.5,39.1667 178.5,36.5C 180.833,36.5 183.167,36.5 185.5,36.5C 186.586,36.62 187.253,37.2867 187.5,38.5C 188.139,41.4748 188.639,44.4748 189,47.5C 189.483,46.552 189.649,45.552 189.5,44.5C 189.833,44.5 190.167,44.5 190.5,44.5C 190.674,46.861 191.007,49.1944 191.5,51.5C 191.362,56.4141 192.028,61.0808 193.5,65.5C 195.684,66.2663 198.018,66.9329 200.5,67.5C 203.438,66.4252 206.438,66.2585 209.5,67C 207.19,67.4966 204.857,67.6633 202.5,67.5C 202.715,69.1788 202.048,70.1788 200.5,70.5C 200.611,69.8826 200.944,69.3826 201.5,69C 200.333,68.8333 199.167,68.6667 198,68.5C 195.761,69.0911 193.594,69.7578 191.5,70.5C 192.037,75.1863 192.704,79.853 193.5,84.5C 194.004,89.2022 194.671,93.8689 195.5,98.5C 195.19,101.713 195.523,104.713 196.5,107.5C 196.5,108.5 196.5,109.5 196.5,110.5C 196.5,110.833 196.5,111.167 196.5,111.5C 193.5,112.833 190.5,112.833 187.5,111.5C 188.833,109.833 190.167,108.167 191.5,106.5C 192.833,103.833 192.833,101.167 191.5,98.5C 191.813,94.9581 191.479,91.6248 190.5,88.5C 190.813,84.9581 190.479,81.6248 189.5,78.5C 189.256,75.7374 187.923,73.5707 185.5,72C 179.843,71.5006 174.176,71.3339 168.5,71.5C 168.337,76.547 168.671,81.547 169.5,86.5C 169.237,90.6002 169.57,94.6002 170.5,98.5C 170.5,102.833 170.5,107.167 170.5,111.5C 161.862,113.862 160.862,112.362 167.5,107C 167.272,106.601 166.938,106.435 166.5,106.5C 166.5,104.167 166.5,101.833 166.5,99.5C 166.825,91.6484 166.492,83.9818 165.5,76.5C 164.375,74.8712 163.041,73.3712 161.5,72C 150.66,68.7149 144.994,72.5482 144.5,83.5C 144.5,87.1667 144.5,90.8333 144.5,94.5C 143.881,98.3559 143.881,102.023 144.5,105.5C 146.167,107.5 147.833,109.5 149.5,111.5C 147.167,112.167 144.833,112.833 142.5,113.5C 142.5,118.833 142.5,124.167 142.5,129.5C 124.659,129.83 106.992,129.497 89.5,128.5C 90.3492,123.442 91.3492,118.442 92.5,113.5C 64.8313,113.667 37.1647,113.5 9.5,113C 13.3089,103.883 16.9755,94.7168 20.5,85.5C 23.4028,79.3498 26.0695,73.0165 28.5,66.5C 30.8969,65.0917 33.5636,64.0917 36.5,63.5C 35.1515,62.0907 33.8181,60.7574 32.5,59.5C 33.5642,54.3075 35.2308,49.3075 37.5,44.5C 39.0277,41.2513 40.3611,37.918 41.5,34.5C 43.6185,30.3182 45.4518,25.9849 47,21.5C 49.087,20.2062 51.2537,19.0395 53.5,18C 63.1609,17.5002 72.8276,17.3335 82.5,17.5C 82.7526,13.9601 83.4192,10.6267 84.5,7.5C 98.1667,7.5 111.833,7.5 125.5,7.5C 125.5,9.16667 125.5,10.8333 125.5,12.5C 129.702,12.8168 133.702,12.4834 137.5,11.5C 140.165,4.79854 141.832,5.13188 142.5,12.5C 167.167,12.5 191.833,12.5 216.5,12.5 Z"/></g>
<g><path style="opacity:1" fill="#d8e4e8" d="M 110.5,15.5 C 114.601,15.9395 116.601,18.2728 116.5,22.5C 115.292,21.7659 113.959,21.4326 112.5,21.5C 109.394,21.2116 107.394,19.545 106.5,16.5C 107.959,16.5674 109.292,16.2341 110.5,15.5 Z"/></g>
<g><path style="opacity:1" fill="#6abcdd" d="M 103.5,16.5 C 103.265,15.9033 102.765,15.5699 102,15.5C 100.989,16.0556 100.156,16.7222 99.5,17.5C 99.6567,16.1266 99.49,14.7932 99,13.5C 98.8091,15.7078 98.3091,17.7078 97.5,19.5C 97.5,17.8333 97.5,16.1667 97.5,14.5C 96.5,14.5 95.5,14.5 94.5,14.5C 94.7373,15.791 94.404,16.791 93.5,17.5C 92.8139,12.8495 94.8139,10.1828 99.5,9.5C 104.192,10.0623 105.526,12.3957 103.5,16.5 Z"/></g>
<g><path style="opacity:1" fill="#4abcea" d="M 110.5,15.5 C 109.292,16.2341 107.959,16.5674 106.5,16.5C 106.946,10.4171 110.279,8.08374 116.5,9.5C 116.5,10.8333 116.5,12.1667 116.5,13.5C 113.918,13.0254 111.918,13.6921 110.5,15.5 Z"/></g>
<g><path style="opacity:1" fill="#8f861a" d="M 84.5,7.5 C 98.3234,6.50418 112.323,6.17085 126.5,6.5C 126.5,8.16667 126.5,9.83333 126.5,11.5C 130.167,11.5 133.833,11.5 137.5,11.5C 133.702,12.4834 129.702,12.8168 125.5,12.5C 125.5,10.8333 125.5,9.16667 125.5,7.5C 111.833,7.5 98.1667,7.5 84.5,7.5 Z"/></g>
<g><path style="opacity:1" fill="#c6ba1c" d="M 79.5,4.5 C 96.6586,3.50335 113.992,3.17001 131.5,3.5C 131.5,5.16667 131.5,6.83333 131.5,8.5C 130.566,7.43236 130.232,6.09903 130.5,4.5C 113.5,4.5 96.5,4.5 79.5,4.5 Z"/></g>
<g><path style="opacity:1" fill="#f2e616" d="M 273.5,36.5 C 273.649,37.552 273.483,38.552 273,39.5C 271.51,38.2721 270.01,38.2721 268.5,39.5C 267.267,35.9679 265.933,32.4679 264.5,29C 250.986,29.3522 246.986,23.5189 252.5,11.5C 252.167,11.1667 251.833,10.8333 251.5,10.5C 248.144,12.2068 244.81,13.8735 241.5,15.5C 236.209,12.0471 231.042,8.38043 226,4.5C 222.404,6.26465 219.237,8.59798 216.5,11.5C 216.715,9.82124 216.048,8.82124 214.5,8.5C 217.589,5.08265 221.256,2.41599 225.5,0.5C 231.099,3.43758 236.433,6.77092 241.5,10.5C 244.947,9.2771 248.28,7.7771 251.5,6C 255.337,5.00027 257.337,6.50027 257.5,10.5C 256.323,14.5041 255.49,18.5041 255,22.5C 255.5,23 256,23.5 256.5,24C 260.833,24.3333 265.167,24.6667 269.5,25C 271.131,28.7275 272.465,32.5609 273.5,36.5 Z"/></g>
<g><path style="opacity:1" fill="#2e2d2e" d="M 99.5,17.5 C 99.7852,19.288 99.4519,20.9547 98.5,22.5C 97.6143,21.675 97.281,20.675 97.5,19.5C 98.3091,17.7078 98.8091,15.7078 99,13.5C 99.49,14.7932 99.6567,16.1266 99.5,17.5 Z"/></g>
<g><path style="opacity:1" fill="#ef5170" d="M 142.5,15.5 C 144.292,16.3091 146.292,16.8091 148.5,17C 144.469,20.0009 143.469,23.8343 145.5,28.5C 145.631,29.2389 145.464,29.9056 145,30.5C 143.281,28.4429 141.281,26.7763 139,25.5C 136.719,26.7763 134.719,28.4429 133,30.5C 133.11,27.2306 133.943,24.064 135.5,21C 134.899,19.395 133.899,18.0616 132.5,17C 134.167,16.6667 135.833,16.3333 137.5,16C 139.127,11.8129 140.794,11.6463 142.5,15.5 Z"/></g>
<g><path style="opacity:1" fill="#a6daef" d="M 97.5,19.5 C 97.281,20.675 97.6143,21.675 98.5,22.5C 99.4519,20.9547 99.7852,19.288 99.5,17.5C 100.156,16.7222 100.989,16.0556 102,15.5C 102.765,15.5699 103.265,15.9033 103.5,16.5C 104.98,25.0214 101.647,28.3548 93.5,26.5C 92.2588,23.463 92.2588,20.463 93.5,17.5C 94.404,16.791 94.7373,15.791 94.5,14.5C 95.5,14.5 96.5,14.5 97.5,14.5C 97.5,16.1667 97.5,17.8333 97.5,19.5 Z"/></g>
<g><path style="opacity:1" fill="#4fc1ee" d="M 112.5,21.5 C 113.959,21.4326 115.292,21.7659 116.5,22.5C 116.703,24.3904 116.037,25.8904 114.5,27C 111.518,27.498 108.518,27.6646 105.5,27.5C 105.5,26.1667 105.5,24.8333 105.5,23.5C 108.388,24.0102 110.721,23.3435 112.5,21.5 Z"/></g>
<g><path style="opacity:1" fill="#23b5eb" d="M 79.5,28.5 C 69.7504,28.8065 60.0838,28.4732 50.5,27.5C 52.2726,26.1077 54.2726,24.941 56.5,24C 64.4931,23.5003 72.4931,23.3336 80.5,23.5C 80.3713,25.2161 80.038,26.8828 79.5,28.5 Z"/></g>
<g><path style="opacity:1" fill="#62caf1" d="M 50.5,27.5 C 60.0838,28.4732 69.7504,28.8065 79.5,28.5C 78.7659,29.7079 78.4326,31.0413 78.5,32.5C 72.1579,32.3338 65.8246,32.5005 59.5,33C 58.9152,34.3024 58.2485,35.469 57.5,36.5C 57.5654,36.0618 57.3988,35.7284 57,35.5C 53.5065,37.377 49.6732,38.0436 45.5,37.5C 46.031,34.763 46.8644,32.0964 48,29.5C 48.4169,28.244 49.2502,27.5774 50.5,27.5 Z"/></g>
<g><path style="opacity:1" fill="#95d2e7" d="M 148.5,36.5 C 149.167,36.5 149.5,36.8333 149.5,37.5C 147.167,37.5 144.833,37.5 142.5,37.5C 142.334,42.1785 142.501,46.8452 143,51.5C 145.041,50.5769 147.208,50.2436 149.5,50.5C 149.5,52.1667 149.5,53.8333 149.5,55.5C 142.167,55.5 134.833,55.5 127.5,55.5C 127.183,51.2984 127.517,47.2984 128.5,43.5C 128.335,46.5184 128.502,49.5184 129,52.5C 131.041,51.5769 133.208,51.2436 135.5,51.5C 135.5,47.1667 135.5,42.8333 135.5,38.5C 133.379,38.6747 131.379,38.3414 129.5,37.5C 132.417,34.6966 135.75,32.3633 139.5,30.5C 142.518,32.5258 145.518,34.5258 148.5,36.5 Z"/></g>
<g><path style="opacity:1" fill="#a0dbef" d="M 99.5,45.5 C 99.5,43.5 99.5,41.5 99.5,39.5C 97.5328,39.7394 95.6995,39.4061 94,38.5C 93.79,40.0581 93.29,41.3915 92.5,42.5C 92.5,41.1667 92.5,39.8333 92.5,38.5C 90.5,38.5 88.5,38.5 86.5,38.5C 86.7678,40.099 86.4345,41.4324 85.5,42.5C 85.631,41.7611 85.4643,41.0944 85,40.5C 82.568,41.0694 80.4013,42.0694 78.5,43.5C 78.253,40.495 79.253,37.995 81.5,36C 87.9954,29.9668 94.1621,30.1334 100,36.5C 100.805,39.6965 100.638,42.6965 99.5,45.5 Z"/></g>
<g><path style="opacity:1" fill="#97d7ed" d="M 123.5,40.5 C 121.81,40.2417 119.81,40.2417 117.5,40.5C 118.226,37.8206 119.059,35.154 120,32.5C 122.466,31.2234 124.966,31.2234 127.5,32.5C 126.163,35.2392 124.83,37.9058 123.5,40.5 Z"/></g>
<g><path style="opacity:1" fill="#a2e3fa" d="M 111.5,33.5 C 111.5,35.5 111.5,37.5 111.5,39.5C 109.5,39.5 107.5,39.5 105.5,39.5C 105.5,37.1667 105.5,34.8333 105.5,32.5C 107.735,32.2053 109.735,32.5386 111.5,33.5 Z"/></g>
<g><path style="opacity:1" fill="#f1bf21" d="M 37.5,32.5 C 37.369,33.2389 37.5357,33.9056 38,34.5C 39.1455,33.3157 40.3121,33.3157 41.5,34.5C 40.3611,37.918 39.0277,41.2513 37.5,44.5C 35.5168,44.8432 34.1834,44.1765 33.5,42.5C 34.2635,38.8632 35.5968,35.5299 37.5,32.5 Z"/></g>
<g><path style="opacity:1" fill="#1f1d1e" d="M 92.5,42.5 C 91.8359,45.1368 91.1693,47.8035 90.5,50.5C 88.604,51.4656 86.604,51.7989 84.5,51.5C 85.1587,48.5448 85.4921,45.5448 85.5,42.5C 86.4345,41.4324 86.7678,40.099 86.5,38.5C 88.5,38.5 90.5,38.5 92.5,38.5C 92.5,39.8333 92.5,41.1667 92.5,42.5 Z"/></g>
<g><path style="opacity:1" fill="#1b1919" d="M 136.5,38.5 C 138.167,38.5 139.833,38.5 141.5,38.5C 141.5,42.8333 141.5,47.1667 141.5,51.5C 139.833,51.5 138.167,51.5 136.5,51.5C 136.5,47.1667 136.5,42.8333 136.5,38.5 Z"/></g>
<g><path style="opacity:1" fill="#e1f3f9" d="M 57.5,36.5 C 55.8927,42.3227 53.8927,47.9893 51.5,53.5C 47.5633,53.2065 43.73,53.5399 40,54.5C 39.5357,53.9056 39.369,53.2389 39.5,52.5C 41.129,47.2647 43.129,42.2647 45.5,37.5C 49.6732,38.0436 53.5065,37.377 57,35.5C 57.3988,35.7284 57.5654,36.0618 57.5,36.5 Z"/></g>
<g><path style="opacity:1" fill="#f1fafd" d="M 105.5,39.5 C 107.5,39.5 109.5,39.5 111.5,39.5C 111.5,43.1667 111.5,46.8333 111.5,50.5C 109.621,49.6586 107.621,49.3253 105.5,49.5C 105.5,46.1667 105.5,42.8333 105.5,39.5 Z"/></g>
<g><path style="opacity:1" fill="#e8f7fc" d="M 129.5,37.5 C 131.379,38.3414 133.379,38.6747 135.5,38.5C 135.5,42.8333 135.5,47.1667 135.5,51.5C 133.208,51.2436 131.041,51.5769 129,52.5C 128.502,49.5184 128.335,46.5184 128.5,43.5C 128.205,41.2646 128.539,39.2646 129.5,37.5 Z"/></g>
<g><path style="opacity:1" fill="#eefafe" d="M 149.5,37.5 C 149.5,41.8333 149.5,46.1667 149.5,50.5C 147.208,50.2436 145.041,50.5769 143,51.5C 142.501,46.8452 142.334,42.1785 142.5,37.5C 144.833,37.5 147.167,37.5 149.5,37.5 Z"/></g>
<g><path style="opacity:1" fill="#e7f0f3" d="M 123.5,40.5 C 122.899,43.9679 121.899,47.3012 120.5,50.5C 118.5,50.5 116.5,50.5 114.5,50.5C 114.723,46.8379 115.723,43.5046 117.5,40.5C 119.81,40.2417 121.81,40.2417 123.5,40.5 Z"/></g>
<g><path style="opacity:1" fill="#211f1e" d="M 268.5,39.5 C 270.658,45.9804 272.991,52.3137 275.5,58.5C 274.081,61.1004 272.415,63.6004 270.5,66C 273.675,65.9467 276.342,66.78 278.5,68.5C 279.657,71.984 280.99,75.3173 282.5,78.5C 283.129,81.3973 284.129,84.064 285.5,86.5C 287.184,93.0553 289.184,99.5553 291.5,106C 290.188,108.807 288.521,111.307 286.5,113.5C 285.5,112.833 284.5,112.167 283.5,111.5C 284.954,109.429 286.287,107.262 287.5,105C 287.101,103.272 286.434,101.772 285.5,100.5C 284.739,96.2157 283.405,92.2157 281.5,88.5C 281.405,86.2143 280.738,84.2143 279.5,82.5C 279.319,77.1474 276.652,73.6474 271.5,72C 267.5,71.3333 263.5,71.3333 259.5,72C 255.834,75.5227 255.501,79.3561 258.5,83.5C 258.263,84.791 258.596,85.791 259.5,86.5C 259.757,90.1715 260.757,93.5048 262.5,96.5C 262.802,99.3725 263.469,102.039 264.5,104.5C 267.167,106.833 269.833,109.167 272.5,111.5C 269.167,112.833 265.833,112.833 262.5,111.5C 262.737,110.209 262.404,109.209 261.5,108.5C 261.567,107.041 261.234,105.708 260.5,104.5C 255.695,103.513 250.695,103.179 245.5,103.5C 245.435,100.572 244.768,97.9052 243.5,95.5C 243.324,92.2727 242.657,89.2727 241.5,86.5C 241.768,84.901 241.434,83.5676 240.5,82.5C 240.5,81.1667 240.5,79.8333 240.5,78.5C 244.5,78.5 248.5,78.5 252.5,78.5C 252.756,76.2075 252.423,74.0408 251.5,72C 245.833,71.3333 240.167,71.3333 234.5,72C 231.464,75.4211 230.797,79.2544 232.5,83.5C 232.325,85.6208 232.659,87.6208 233.5,89.5C 233.41,92.1522 234.076,94.4855 235.5,96.5C 235.194,99.3854 235.527,102.052 236.5,104.5C 238.77,106.975 241.437,108.975 244.5,110.5C 244.5,110.833 244.5,111.167 244.5,111.5C 241.5,112.833 238.5,112.833 235.5,111.5C 234.957,108.782 234.291,106.115 233.5,103.5C 233.279,100.933 232.612,98.5994 231.5,96.5C 231.354,92.6125 230.687,88.9458 229.5,85.5C 229.737,84.209 229.404,83.209 228.5,82.5C 228.919,79.6755 227.919,77.5088 225.5,76C 217.749,69.5269 210.582,70.0269 204,77.5C 203.297,79.9291 203.463,82.2625 204.5,84.5C 204.717,88.7051 205.383,92.7051 206.5,96.5C 206.5,98.8333 206.5,101.167 206.5,103.5C 205.549,104.919 205.216,106.585 205.5,108.5C 205.167,108.5 204.833,108.5 204.5,108.5C 204.5,107.5 204.5,106.5 204.5,105.5C 204.675,103.379 204.341,101.379 203.5,99.5C 203.059,92.2859 202.059,85.2859 200.5,78.5C 200.195,75.586 200.195,72.9193 200.5,70.5C 202.048,70.1788 202.715,69.1788 202.5,67.5C 204.857,67.6633 207.19,67.4966 209.5,67C 206.438,66.2585 203.438,66.4252 200.5,67.5C 198.018,66.9329 195.684,66.2663 193.5,65.5C 195.5,65.5 197.5,65.5 199.5,65.5C 199.624,59.9313 198.957,54.598 197.5,49.5C 197.5,48.1667 197.5,46.8333 197.5,45.5C 196.963,40.8137 196.296,36.147 195.5,31.5C 193.167,31.5 190.833,31.5 188.5,31.5C 189.295,35.7853 189.628,40.1186 189.5,44.5C 189.649,45.552 189.483,46.552 189,47.5C 188.639,44.4748 188.139,41.4748 187.5,38.5C 187.253,37.2867 186.586,36.62 185.5,36.5C 185.5,35.1667 185.5,33.8333 185.5,32.5C 180.695,31.5128 175.695,31.1795 170.5,31.5C 170.216,33.4147 170.549,35.0813 171.5,36.5C 171.5,36.8333 171.5,37.1667 171.5,37.5C 171.5,42.1667 171.5,46.8333 171.5,51.5C 171.5,53.5 171.5,55.5 171.5,57.5C 172.036,60.6981 171.369,63.3647 169.5,65.5C 169.5,63.1667 169.5,60.8333 169.5,58.5C 166.5,58.5 163.5,58.5 160.5,58.5C 160.5,49.5 160.5,40.5 160.5,31.5C 157.941,31.1984 155.607,31.5318 153.5,32.5C 152.505,43.3206 152.172,54.3206 152.5,65.5C 151.883,65.3893 151.383,65.056 151,64.5C 150.83,55.324 150.33,46.324 149.5,37.5C 149.5,36.8333 149.167,36.5 148.5,36.5C 147.568,33.7888 146.568,31.1222 145.5,28.5C 143.469,23.8343 144.469,20.0009 148.5,17C 146.292,16.8091 144.292,16.3091 142.5,15.5C 166.819,14.7375 191.152,14.2375 215.5,14C 216.056,13.6174 216.389,13.1174 216.5,12.5C 216.5,12.1667 216.5,11.8333 216.5,11.5C 219.237,8.59798 222.404,6.26465 226,4.5C 231.042,8.38043 236.209,12.0471 241.5,15.5C 244.81,13.8735 248.144,12.2068 251.5,10.5C 251.833,10.8333 252.167,11.1667 252.5,11.5C 246.986,23.5189 250.986,29.3522 264.5,29C 265.933,32.4679 267.267,35.9679 268.5,39.5 Z"/></g>
<g><path style="opacity:1" fill="#e1edf1" d="M 252.5,37.5 C 253.219,39.7638 253.552,42.0971 253.5,44.5C 260.392,43.7443 265.392,46.411 268.5,52.5C 266.283,51.6314 263.95,51.298 261.5,51.5C 256.852,51.1921 252.519,49.6921 248.5,47C 246.664,44.5071 245.664,41.6738 245.5,38.5C 247.218,37.776 249.052,37.1094 251,36.5C 251.383,37.056 251.883,37.3893 252.5,37.5 Z"/></g>
<g><path style="opacity:1" fill="#e3f3f8" d="M 242.5,41.5 C 243.919,45.0148 244.586,48.6814 244.5,52.5C 242.285,53.2679 239.952,53.9346 237.5,54.5C 235.738,50.0268 234.738,45.3602 234.5,40.5C 236.556,39.7839 238.723,39.1172 241,38.5C 241.232,39.7375 241.732,40.7375 242.5,41.5 Z"/></g>
<g><path style="opacity:1" fill="#def2f9" d="M 230.5,41.5 C 231.593,45.3939 232.26,49.3939 232.5,53.5C 230.721,55.3435 228.388,56.0102 225.5,55.5C 224.402,50.9077 223.735,46.241 223.5,41.5C 225.729,41.3856 228.062,41.3856 230.5,41.5 Z"/></g>
<g><path style="opacity:1" fill="#eff8fb" d="M 218.5,40.5 C 218.945,43.3646 218.278,45.8646 216.5,48C 217.044,48.7172 217.711,49.2172 218.5,49.5C 216.941,49.6498 215.274,49.9831 213.5,50.5C 213.5,50.1667 213.5,49.8333 213.5,49.5C 212.726,48.8529 211.726,48.5195 210.5,48.5C 207.503,49.6346 204.503,50.6346 201.5,51.5C 200.631,49.283 200.298,46.9496 200.5,44.5C 200.5,43.1667 200.5,41.8333 200.5,40.5C 202.5,40.5 204.5,40.5 206.5,40.5C 206.694,42.9118 208.027,43.9118 210.5,43.5C 210.5,42.1667 210.5,40.8333 210.5,39.5C 212.469,39.6373 214.636,39.304 217,38.5C 217.278,39.4158 217.778,40.0825 218.5,40.5 Z"/></g>
<g><path style="opacity:1" fill="#f1fafc" d="M 197.5,45.5 C 197.5,46.8333 197.5,48.1667 197.5,49.5C 197.631,50.2389 197.464,50.9056 197,51.5C 195.172,50.2475 193.339,50.2475 191.5,51.5C 191.007,49.1944 190.674,46.861 190.5,44.5C 190.34,42.8008 190.506,41.1341 191,39.5C 192.401,41.1922 194.234,41.8588 196.5,41.5C 196.232,43.099 196.566,44.4324 197.5,45.5 Z"/></g>
<g><path style="opacity:1" fill="#e6f2f5" d="M 171.5,37.5 C 173.357,40.0176 175.19,40.0176 177,37.5C 177.186,40.0356 177.686,42.369 178.5,44.5C 180.833,44.5 183.167,44.5 185.5,44.5C 185.5,46.1667 185.5,47.8333 185.5,49.5C 183.5,49.5 181.5,49.5 179.5,49.5C 178.71,50.6085 178.21,51.9419 178,53.5C 176.333,52.1667 174.667,52.1667 173,53.5C 172.722,52.5842 172.222,51.9175 171.5,51.5C 171.5,46.8333 171.5,42.1667 171.5,37.5 Z"/></g>
<g><path style="opacity:1" fill="#eefafe" d="M 153.5,37.5 C 155.5,40.1667 157.5,40.1667 159.5,37.5C 159.5,41.8333 159.5,46.1667 159.5,50.5C 157.234,50.1412 155.401,50.8078 154,52.5C 153.501,47.5111 153.334,42.5111 153.5,37.5 Z"/></g>
<g><path style="opacity:1" fill="#a6d4e5" d="M 197.5,45.5 C 196.566,44.4324 196.232,43.099 196.5,41.5C 194.234,41.8588 192.401,41.1922 191,39.5C 190.506,41.1341 190.34,42.8008 190.5,44.5C 190.167,44.5 189.833,44.5 189.5,44.5C 189.628,40.1186 189.295,35.7853 188.5,31.5C 190.833,31.5 193.167,31.5 195.5,31.5C 196.296,36.147 196.963,40.8137 197.5,45.5 Z"/></g>
<g><path style="opacity:1" fill="#97d9f0" d="M 185.5,32.5 C 185.5,33.8333 185.5,35.1667 185.5,36.5C 183.167,36.5 180.833,36.5 178.5,36.5C 178.5,39.1667 178.5,41.8333 178.5,44.5C 177.686,42.369 177.186,40.0356 177,37.5C 175.19,40.0176 173.357,40.0176 171.5,37.5C 171.5,37.1667 171.5,36.8333 171.5,36.5C 171.5,35.1667 171.5,33.8333 171.5,32.5C 176.167,32.5 180.833,32.5 185.5,32.5 Z"/></g>
<g><path style="opacity:1" fill="#a1e3fa" d="M 153.5,32.5 C 155.5,32.5 157.5,32.5 159.5,32.5C 159.5,34.1667 159.5,35.8333 159.5,37.5C 157.5,40.1667 155.5,40.1667 153.5,37.5C 153.5,35.8333 153.5,34.1667 153.5,32.5 Z"/></g>
<g><path style="opacity:1" fill="#292b2c" d="M 210.5,39.5 C 210.5,40.8333 210.5,42.1667 210.5,43.5C 208.027,43.9118 206.694,42.9118 206.5,40.5C 206.5,38.8333 206.5,37.1667 206.5,35.5C 207.5,35.5 208.5,35.5 209.5,35.5C 209.232,37.099 209.566,38.4324 210.5,39.5 Z"/></g>
<g><path style="opacity:1" fill="#4f6a76" d="M 153.5,32.5 C 155.607,31.5318 157.941,31.1984 160.5,31.5C 160.5,40.5 160.5,49.5 160.5,58.5C 163.5,58.5 166.5,58.5 169.5,58.5C 169.5,60.8333 169.5,63.1667 169.5,65.5C 169.167,65.5 168.833,65.5 168.5,65.5C 168.5,64.5 168.5,63.5 168.5,62.5C 168.5,61.5 168.5,60.5 168.5,59.5C 165.5,59.5 162.5,59.5 159.5,59.5C 159.5,56.5 159.5,53.5 159.5,50.5C 159.5,46.1667 159.5,41.8333 159.5,37.5C 159.5,35.8333 159.5,34.1667 159.5,32.5C 157.5,32.5 155.5,32.5 153.5,32.5 Z"/></g>
<g><path style="opacity:1" fill="#82d0ea" d="M 252.5,37.5 C 251.883,37.3893 251.383,37.056 251,36.5C 249.052,37.1094 247.218,37.776 245.5,38.5C 244.427,37.7494 244.26,36.7494 245,35.5C 246.167,34.3333 247.333,33.1667 248.5,32C 252.871,31.1725 257.205,31.3391 261.5,32.5C 262.246,33.7362 262.579,35.0695 262.5,36.5C 258.958,36.1872 255.625,36.5206 252.5,37.5 Z"/></g>
<g><path style="opacity:1" fill="#9bdcf3" d="M 242.5,41.5 C 241.732,40.7375 241.232,39.7375 241,38.5C 238.723,39.1172 236.556,39.7839 234.5,40.5C 234.067,37.7411 232.4,36.4078 229.5,36.5C 229.629,38.2161 229.962,39.8828 230.5,41.5C 228.062,41.3856 225.729,41.3856 223.5,41.5C 221.009,34.9723 223.342,31.639 230.5,31.5C 235.085,31.8862 238.918,33.8862 242,37.5C 242.49,38.7932 242.657,40.1266 242.5,41.5 Z"/></g>
<g><path style="opacity:1" fill="#93d7ef" d="M 218.5,40.5 C 217.778,40.0825 217.278,39.4158 217,38.5C 214.636,39.304 212.469,39.6373 210.5,39.5C 209.566,38.4324 209.232,37.099 209.5,35.5C 208.5,35.5 207.5,35.5 206.5,35.5C 206.5,37.1667 206.5,38.8333 206.5,40.5C 204.5,40.5 202.5,40.5 200.5,40.5C 200.5,41.8333 200.5,43.1667 200.5,44.5C 199.437,40.3609 198.77,36.0275 198.5,31.5C 203.179,31.3342 207.845,31.5008 212.5,32C 214.241,33.6196 216.075,35.1196 218,36.5C 218.49,37.7932 218.657,39.1266 218.5,40.5 Z"/></g>
<g><path style="opacity:1" fill="#508ea5" d="M 185.5,32.5 C 180.833,32.5 176.167,32.5 171.5,32.5C 171.5,33.8333 171.5,35.1667 171.5,36.5C 170.549,35.0813 170.216,33.4147 170.5,31.5C 175.695,31.1795 180.695,31.5128 185.5,32.5 Z"/></g>
<g><path style="opacity:1" fill="#f1ae7a" d="M 233.5,19.5 C 235.366,20.0138 237.2,20.6805 239,21.5C 240.285,21.0496 241.452,20.3829 242.5,19.5C 242.587,23.3787 244.254,26.212 247.5,28C 245.866,28.4935 244.199,28.6602 242.5,28.5C 242.711,35.5449 241.378,36.0449 238.5,30C 236.5,29.6667 234.5,29.3333 232.5,29C 233.376,27.414 234.376,25.914 235.5,24.5C 234.544,22.9246 233.877,21.258 233.5,19.5 Z"/></g>
<g><path style="opacity:1" fill="#eead7a" d="M 203.5,19.5 C 207.827,20.0499 208.66,22.0499 206,25.5C 205,24.1667 204,24.1667 203,25.5C 202.691,24.2341 202.191,23.0674 201.5,22C 202.756,21.5831 203.423,20.7498 203.5,19.5 Z"/></g>
<g><path style="opacity:1" fill="#e2a87b" d="M 192.5,21.5 C 195.674,21.9522 196.007,22.9522 193.5,24.5C 191.481,23.8671 191.147,22.8671 192.5,21.5 Z"/></g>
<g><path style="opacity:1" fill="#e3a77b" d="M 217.5,19.5 C 222.538,21.4098 222.371,23.4098 217,25.5C 216.51,23.4546 216.677,21.4546 217.5,19.5 Z"/></g>
<g><path style="opacity:1" fill="#788287" d="M 111.5,33.5 C 112.167,39.8333 112.833,46.1667 113.5,52.5C 113.44,53.0431 113.107,53.3764 112.5,53.5C 111.614,52.675 111.281,51.675 111.5,50.5C 111.5,46.8333 111.5,43.1667 111.5,39.5C 111.5,37.5 111.5,35.5 111.5,33.5 Z"/></g>
<g><path style="opacity:1" fill="#f09e2b" d="M 273.5,36.5 C 276.139,44.0812 278.806,51.7479 281.5,59.5C 279.621,58.6586 277.621,58.3253 275.5,58.5C 272.991,52.3137 270.658,45.9804 268.5,39.5C 270.01,38.2721 271.51,38.2721 273,39.5C 273.483,38.552 273.649,37.552 273.5,36.5 Z"/></g>
<g><path style="opacity:1" fill="#d8eef6" d="M 99.5,45.5 C 99.2962,48.5176 98.9629,51.5176 98.5,54.5C 91.5878,53.5379 84.5878,53.2045 77.5,53.5C 77.5,51.8333 77.5,50.1667 77.5,48.5C 77.6287,46.7839 77.962,45.1172 78.5,43.5C 80.4013,42.0694 82.568,41.0694 85,40.5C 85.4643,41.0944 85.631,41.7611 85.5,42.5C 85.4921,45.5448 85.1587,48.5448 84.5,51.5C 86.604,51.7989 88.604,51.4656 90.5,50.5C 91.1693,47.8035 91.8359,45.1368 92.5,42.5C 93.29,41.3915 93.79,40.0581 94,38.5C 95.6995,39.4061 97.5328,39.7394 99.5,39.5C 99.5,41.5 99.5,43.5 99.5,45.5 Z"/></g>
<g><path style="opacity:1" fill="#ec912e" d="M 33.5,42.5 C 34.1834,44.1765 35.5168,44.8432 37.5,44.5C 35.2308,49.3075 33.5642,54.3075 32.5,59.5C 30.8311,57.3382 28.8311,57.0048 26.5,58.5C 28.4627,52.924 30.7961,47.5907 33.5,42.5 Z"/></g>
<g><path style="opacity:1" fill="#96dcf5" d="M 77.5,48.5 C 77.5,50.1667 77.5,51.8333 77.5,53.5C 84.5878,53.2045 91.5878,53.5379 98.5,54.5C 98.5,55.1667 98.5,55.8333 98.5,56.5C 91.2454,56.1868 84.0787,56.5201 77,57.5C 76.5172,56.552 76.3505,55.552 76.5,54.5C 76.2053,52.2646 76.5386,50.2646 77.5,48.5 Z"/></g>
<g><path style="opacity:1" fill="#56c5f1" d="M 76.5,54.5 C 76.3505,55.552 76.5172,56.552 77,57.5C 84.0787,56.5201 91.2454,56.1868 98.5,56.5C 97.8413,59.4552 97.5079,62.4552 97.5,65.5C 94.7531,65.8134 92.0865,65.48 89.5,64.5C 90.3482,62.5914 90.6816,60.5914 90.5,58.5C 87.8333,58.5 85.1667,58.5 82.5,58.5C 82.0074,60.8056 81.6741,63.139 81.5,65.5C 79.1667,65.5 76.8333,65.5 74.5,65.5C 74.2511,61.5422 74.9177,57.8756 76.5,54.5 Z"/></g>
<g><path style="opacity:1" fill="#99def7" d="M 105.5,49.5 C 107.621,49.3253 109.621,49.6586 111.5,50.5C 111.281,51.675 111.614,52.675 112.5,53.5C 113.107,53.3764 113.44,53.0431 113.5,52.5C 113.328,51.5084 113.662,50.8417 114.5,50.5C 116.5,50.5 118.5,50.5 120.5,50.5C 119.5,53.1667 118.5,55.8333 117.5,58.5C 113.999,57.2035 110.499,57.2035 107,58.5C 106.802,56.6183 106.302,54.9516 105.5,53.5C 105.5,52.1667 105.5,50.8333 105.5,49.5 Z"/></g>
<g><path style="opacity:1" fill="#5bc4ed" d="M 127.5,55.5 C 134.833,55.5 142.167,55.5 149.5,55.5C 149.5,58.8333 149.5,62.1667 149.5,65.5C 146.833,65.5 144.167,65.5 141.5,65.5C 141.5,63.5 141.5,61.5 141.5,59.5C 139.167,59.5 136.833,59.5 134.5,59.5C 134.5,61.5 134.5,63.5 134.5,65.5C 131.833,65.5 129.167,65.5 126.5,65.5C 126.187,61.9581 126.521,58.6248 127.5,55.5 Z"/></g>
<g><path style="opacity:1" fill="#252527" d="M 234.5,40.5 C 234.738,45.3602 235.738,50.0268 237.5,54.5C 237.833,56.5 238.167,58.5 238.5,60.5C 237.167,60.5 235.833,60.5 234.5,60.5C 234.279,57.9327 233.612,55.5994 232.5,53.5C 232.26,49.3939 231.593,45.3939 230.5,41.5C 229.962,39.8828 229.629,38.2161 229.5,36.5C 232.4,36.4078 234.067,37.7411 234.5,40.5 Z"/></g>
<g><path style="opacity:1" fill="#6ecdef" d="M 39.5,52.5 C 39.369,53.2389 39.5357,53.9056 40,54.5C 43.73,53.5399 47.5633,53.2065 51.5,53.5C 51.5,54.5 51.5,55.5 51.5,56.5C 57.8333,56.5 64.1667,56.5 70.5,56.5C 70.7678,58.099 70.4345,59.4324 69.5,60.5C 64.6782,59.834 59.6782,59.5007 54.5,59.5C 49.1194,59.5058 44.1194,60.1725 39.5,61.5C 36.983,58.5389 36.983,55.5389 39.5,52.5 Z"/></g>
<g><path style="opacity:1" fill="#6dc8ec" d="M 213.5,49.5 C 211.833,49.5 210.167,49.5 208.5,49.5C 208.887,54.874 209.554,60.2074 210.5,65.5C 207.833,65.5 205.167,65.5 202.5,65.5C 202.46,60.8075 202.127,56.1408 201.5,51.5C 204.503,50.6346 207.503,49.6346 210.5,48.5C 211.726,48.5195 212.726,48.8529 213.5,49.5 Z"/></g>
<g><path style="opacity:1" fill="#59c5ef" d="M 244.5,52.5 C 247.488,56.9232 247.154,61.0899 243.5,65C 237.285,66.5395 231.785,65.3729 227,61.5C 226.495,59.4817 225.995,57.4817 225.5,55.5C 228.388,56.0102 230.721,55.3435 232.5,53.5C 233.612,55.5994 234.279,57.9327 234.5,60.5C 235.833,60.5 237.167,60.5 238.5,60.5C 238.167,58.5 237.833,56.5 237.5,54.5C 239.952,53.9346 242.285,53.2679 244.5,52.5 Z"/></g>
<g><path style="opacity:1" fill="#6ecbee" d="M 261.5,51.5 C 263.95,51.298 266.283,51.6314 268.5,52.5C 270.018,54.6807 271.018,57.1807 271.5,60C 271.361,61.301 270.695,62.1344 269.5,62.5C 267.621,61.6586 265.621,61.3253 263.5,61.5C 263.5,61.1667 263.5,60.8333 263.5,60.5C 262.99,57.4606 262.323,54.4606 261.5,51.5 Z"/></g>
<g><path style="opacity:1" fill="#6dbfdf" d="M 153.5,32.5 C 153.5,34.1667 153.5,35.8333 153.5,37.5C 153.334,42.5111 153.501,47.5111 154,52.5C 155.401,50.8078 157.234,50.1412 159.5,50.5C 159.5,53.5 159.5,56.5 159.5,59.5C 162.5,59.5 165.5,59.5 168.5,59.5C 168.5,60.5 168.5,61.5 168.5,62.5C 163.919,61.3932 159.252,61.2266 154.5,62C 153.663,63.0113 153.33,64.1779 153.5,65.5C 153.167,65.5 152.833,65.5 152.5,65.5C 152.172,54.3206 152.505,43.3206 153.5,32.5 Z"/></g>
<g><path style="opacity:1" fill="#67c8ef" d="M 218.5,49.5 C 220.417,50.1164 221.584,51.4497 222,53.5C 222.642,57.4908 223.142,61.4908 223.5,65.5C 220.881,65.7683 218.381,65.435 216,64.5C 215.228,59.8087 214.395,55.1421 213.5,50.5C 215.274,49.9831 216.941,49.6498 218.5,49.5 Z"/></g>
<g><path style="opacity:1" fill="#2e6f88" d="M 263.5,60.5 C 263.5,60.8333 263.5,61.1667 263.5,61.5C 259.833,61.5 256.167,61.5 252.5,61.5C 252.5,62.8333 252.5,64.1667 252.5,65.5C 251.549,64.0813 251.216,62.4147 251.5,60.5C 255.5,60.5 259.5,60.5 263.5,60.5 Z"/></g>
<g><path style="opacity:1" fill="#53c2ee" d="M 179.5,49.5 C 179.5,53.5 179.5,57.5 179.5,61.5C 182.5,61.5 185.5,61.5 188.5,61.5C 188.5,62.8333 188.5,64.1667 188.5,65.5C 183.167,65.5 177.833,65.5 172.5,65.5C 172.806,62.6146 172.473,59.9479 171.5,57.5C 171.5,55.5 171.5,53.5 171.5,51.5C 172.222,51.9175 172.722,52.5842 173,53.5C 174.667,52.1667 176.333,52.1667 178,53.5C 178.21,51.9419 178.71,50.6085 179.5,49.5 Z"/></g>
<g><path style="opacity:1" fill="#efd719" d="M 32.5,59.5 C 33.8181,60.7574 35.1515,62.0907 36.5,63.5C 33.5636,64.0917 30.8969,65.0917 28.5,66.5C 26.5168,66.8432 25.1834,66.1765 24.5,64.5C 24.6036,62.2972 25.2702,60.2972 26.5,58.5C 28.8311,57.0048 30.8311,57.3382 32.5,59.5 Z"/></g>
<g><path style="opacity:1" fill="#2ebdf3" d="M 69.5,60.5 C 69.5,61.8333 69.5,63.1667 69.5,64.5C 60.9177,65.4699 52.2511,65.8032 43.5,65.5C 41.8333,64.5 40.5,63.1667 39.5,61.5C 44.1194,60.1725 49.1194,59.5058 54.5,59.5C 59.6782,59.5007 64.6782,59.834 69.5,60.5 Z"/></g>
<g><path style="opacity:1" fill="#3cb7e7" d="M 105.5,53.5 C 106.302,54.9516 106.802,56.6183 107,58.5C 110.499,57.2035 113.999,57.2035 117.5,58.5C 117.039,60.5504 116.372,62.5504 115.5,64.5C 112.232,65.487 108.898,65.8204 105.5,65.5C 105.5,61.5 105.5,57.5 105.5,53.5 Z"/></g>
<g><path style="opacity:1" fill="#60c3eb" d="M 197.5,49.5 C 198.957,54.598 199.624,59.9313 199.5,65.5C 197.5,65.5 195.5,65.5 193.5,65.5C 192.028,61.0808 191.362,56.4141 191.5,51.5C 193.339,50.2475 195.172,50.2475 197,51.5C 197.464,50.9056 197.631,50.2389 197.5,49.5 Z"/></g>
<g><path style="opacity:1" fill="#f5d81a" d="M 275.5,58.5 C 277.621,58.3253 279.621,58.6586 281.5,59.5C 282.566,61.7014 283.233,64.0347 283.5,66.5C 282.448,68.256 280.781,68.9227 278.5,68.5C 276.342,66.78 273.675,65.9467 270.5,66C 272.415,63.6004 274.081,61.1004 275.5,58.5 Z"/></g>
<g><path style="opacity:1" fill="#1eb9f2" d="M 168.5,62.5 C 168.5,63.5 168.5,64.5 168.5,65.5C 163.5,65.5 158.5,65.5 153.5,65.5C 153.33,64.1779 153.663,63.0113 154.5,62C 159.252,61.2266 163.919,61.3932 168.5,62.5 Z"/></g>
<g><path style="opacity:1" fill="#1db7f0" d="M 263.5,61.5 C 265.621,61.3253 267.621,61.6586 269.5,62.5C 269.047,63.4584 268.381,64.2917 267.5,65C 262.511,65.4993 257.511,65.6659 252.5,65.5C 252.5,64.1667 252.5,62.8333 252.5,61.5C 256.167,61.5 259.833,61.5 263.5,61.5 Z"/></g>
<g><path style="opacity:1" fill="#195b73" d="M 69.5,64.5 C 65.5549,65.8255 61.2216,66.4921 56.5,66.5C 51.9866,66.4991 47.6533,66.1657 43.5,65.5C 52.2511,65.8032 60.9177,65.4699 69.5,64.5 Z"/></g>
<g><path style="opacity:1" fill="#f1e316" d="M 200.5,70.5 C 200.195,72.9193 200.195,75.586 200.5,78.5C 200.5,80.1667 200.5,81.8333 200.5,83.5C 198.05,83.298 195.717,83.6314 193.5,84.5C 192.704,79.853 192.037,75.1863 191.5,70.5C 193.594,69.7578 195.761,69.0911 198,68.5C 199.167,68.6667 200.333,68.8333 201.5,69C 200.944,69.3826 200.611,69.8826 200.5,70.5 Z"/></g>
<g><path style="opacity:1" fill="#ef9f2b" d="M 24.5,64.5 C 25.1834,66.1765 26.5168,66.8432 28.5,66.5C 26.0695,73.0165 23.4028,79.3498 20.5,85.5C 19.3285,84.6554 17.9952,83.9887 16.5,83.5C 18.7958,76.9273 21.4625,70.5939 24.5,64.5 Z"/></g>
<g><path style="opacity:1" fill="#f9ea15" d="M 52.5,83.5 C 49.9455,82.612 47.2788,82.2786 44.5,82.5C 44.5,81.5 44.5,80.5 44.5,79.5C 44.5,78.5 44.5,77.5 44.5,76.5C 43.0222,76.238 41.6888,76.5713 40.5,77.5C 39.2981,79.7805 38.2981,82.1138 37.5,84.5C 34.6649,83.2138 31.8316,83.2138 29,84.5C 28.5357,83.9056 28.369,83.2389 28.5,82.5C 29.8204,79.1879 31.1538,75.8546 32.5,72.5C 39.3901,71.1889 46.2235,71.1889 53,72.5C 53.6355,73.9663 54.4688,75.2997 55.5,76.5C 54.2981,78.7805 53.2981,81.1138 52.5,83.5 Z"/></g>
<g><path style="opacity:1" fill="#f5e516" d="M 80.5,85.5 C 77.3019,86.0356 74.6353,85.369 72.5,83.5C 72.6741,81.139 73.0074,78.8056 73.5,76.5C 68.7573,76.2683 66.4239,78.6016 66.5,83.5C 63.1897,83.6613 60.1897,83.6613 57.5,83.5C 60.1246,73.0152 66.7912,68.8485 77.5,71C 79,72.5 80.5,74 82,75.5C 82.153,78.8999 81.653,82.2333 80.5,85.5 Z"/></g>
<g><path style="opacity:1" fill="#fceb15" d="M 135.5,85.5 C 130.833,85.5 126.167,85.5 121.5,85.5C 122.625,83.8712 123.959,82.3712 125.5,81C 117.507,80.5003 109.507,80.3336 101.5,80.5C 101.704,77.4824 102.037,74.4824 102.5,71.5C 115.167,71.5 127.833,71.5 140.5,71.5C 140.665,74.8499 140.498,78.1832 140,81.5C 138.629,83.0414 137.129,84.3747 135.5,85.5 Z"/></g>
<g><path style="opacity:1" fill="#fbec15" d="M 165.5,76.5 C 165.5,79.1667 165.5,81.8333 165.5,84.5C 162.833,83.1667 160.167,83.1667 157.5,84.5C 157.5,81.8333 157.5,79.1667 157.5,76.5C 155.901,76.2322 154.568,76.5655 153.5,77.5C 152.686,79.631 152.186,81.9644 152,84.5C 149.619,83.565 147.119,83.2317 144.5,83.5C 144.994,72.5482 150.66,68.7149 161.5,72C 163.041,73.3712 164.375,74.8712 165.5,76.5 Z"/></g>
<g><path style="opacity:1" fill="#f9e716" d="M 189.5,78.5 C 189.5,79.8333 189.5,81.1667 189.5,82.5C 187.05,82.298 184.717,82.6314 182.5,83.5C 181.539,81.7354 181.205,79.7354 181.5,77.5C 180.167,77.5 178.833,77.5 177.5,77.5C 177.5,80.5 177.5,83.5 177.5,86.5C 175.241,85.4224 172.574,85.4224 169.5,86.5C 168.671,81.547 168.337,76.547 168.5,71.5C 174.176,71.3339 179.843,71.5006 185.5,72C 187.923,73.5707 189.256,75.7374 189.5,78.5 Z"/></g>
<g><path style="opacity:1" fill="#f9e915" d="M 228.5,82.5 C 225.75,81.9005 223.083,82.5672 220.5,84.5C 219.549,83.0813 219.216,81.4147 219.5,79.5C 216.612,78.9898 214.279,79.6565 212.5,81.5C 212.649,82.552 212.483,83.552 212,84.5C 209.502,83.2215 207.002,83.2215 204.5,84.5C 203.463,82.2625 203.297,79.9291 204,77.5C 210.582,70.0269 217.749,69.5269 225.5,76C 227.919,77.5088 228.919,79.6755 228.5,82.5 Z"/></g>
<g><path style="opacity:1" fill="#faec15" d="M 240.5,82.5 C 240.631,83.2389 240.464,83.9056 240,84.5C 237.619,83.565 235.119,83.2317 232.5,83.5C 230.797,79.2544 231.464,75.4211 234.5,72C 240.167,71.3333 245.833,71.3333 251.5,72C 252.423,74.0408 252.756,76.2075 252.5,78.5C 248.5,78.5 244.5,78.5 240.5,78.5C 240.5,79.8333 240.5,81.1667 240.5,82.5 Z"/></g>
<g><path style="opacity:1" fill="#f6e716" d="M 279.5,82.5 C 277.052,83.4731 274.385,83.8064 271.5,83.5C 271.07,80.8429 269.737,78.8429 267.5,77.5C 266.833,77.6667 266.167,77.8333 265.5,78C 266.337,79.0113 266.67,80.1779 266.5,81.5C 266.631,82.2389 266.464,82.9056 266,83.5C 263.502,82.2215 261.002,82.2215 258.5,83.5C 255.501,79.3561 255.834,75.5227 259.5,72C 263.5,71.3333 267.5,71.3333 271.5,72C 276.652,73.6474 279.319,77.1474 279.5,82.5 Z"/></g>
<g><path style="opacity:1" fill="#ed902f" d="M 283.5,66.5 C 285.342,70.6795 287.008,75.0129 288.5,79.5C 286.648,78.9111 284.815,78.2444 283,77.5C 282.601,77.7284 282.435,78.0618 282.5,78.5C 280.99,75.3173 279.657,71.984 278.5,68.5C 280.781,68.9227 282.448,68.256 283.5,66.5 Z"/></g>
<g><path style="opacity:1" fill="#221f1e" d="M 72.5,83.5 C 71.0552,86.9365 70.0552,90.6032 69.5,94.5C 68.2504,97.006 67.5838,99.6726 67.5,102.5C 65.8863,104.075 63.8863,104.741 61.5,104.5C 61.5,103.5 61.5,102.5 61.5,101.5C 63.0058,96.9711 64.3391,92.3044 65.5,87.5C 66.2341,86.2921 66.5674,84.9587 66.5,83.5C 66.4239,78.6016 68.7573,76.2683 73.5,76.5C 73.0074,78.8056 72.6741,81.139 72.5,83.5 Z"/></g>
<g><path style="opacity:1" fill="#7c731b" d="M 153.5,77.5 C 154.568,76.5655 155.901,76.2322 157.5,76.5C 157.5,79.1667 157.5,81.8333 157.5,84.5C 157.5,85.1667 157.5,85.8333 157.5,86.5C 156.523,83.7131 156.19,80.7131 156.5,77.5C 155.5,77.5 154.5,77.5 153.5,77.5 Z"/></g>
<g><path style="opacity:1" fill="#24201e" d="M 220.5,84.5 C 220.5,85.5 220.5,86.5 220.5,87.5C 221.388,90.0545 221.721,92.7212 221.5,95.5C 219.167,95.5 216.833,95.5 214.5,95.5C 214.468,90.6093 213.801,85.9426 212.5,81.5C 214.279,79.6565 216.612,78.9898 219.5,79.5C 219.216,81.4147 219.549,83.0813 220.5,84.5 Z"/></g>
<g><path style="opacity:1" fill="#211e1e" d="M 44.5,79.5 C 43.2616,81.2143 42.595,83.2143 42.5,85.5C 40.604,89.6453 38.9373,93.9787 37.5,98.5C 37.251,102.376 35.251,104.376 31.5,104.5C 31.9595,101.123 32.6261,97.7893 33.5,94.5C 34.4861,92.5739 35.4861,90.5739 36.5,88.5C 36.8333,87.1667 37.1667,85.8333 37.5,84.5C 38.2981,82.1138 39.2981,79.7805 40.5,77.5C 41.6888,76.5713 43.0222,76.238 44.5,76.5C 44.5,77.5 44.5,78.5 44.5,79.5 Z"/></g>
<g><path style="opacity:1" fill="#221e1e" d="M 271.5,83.5 C 271.971,85.5786 272.637,87.5786 273.5,89.5C 274.462,93.3948 275.796,97.0615 277.5,100.5C 277.5,101.833 277.5,103.167 277.5,104.5C 276.167,104.5 274.833,104.5 273.5,104.5C 273.737,103.209 273.404,102.209 272.5,101.5C 272.405,99.2143 271.738,97.2143 270.5,95.5C 270.074,91.5732 269.074,87.9065 267.5,84.5C 267.737,83.209 267.404,82.209 266.5,81.5C 266.67,80.1779 266.337,79.0113 265.5,78C 266.167,77.8333 266.833,77.6667 267.5,77.5C 269.737,78.8429 271.07,80.8429 271.5,83.5 Z"/></g>
<g><path style="opacity:1" fill="#f7c221" d="M 288.5,79.5 C 289.167,81.8333 289.833,84.1667 290.5,86.5C 288.833,87.8333 287.167,87.8333 285.5,86.5C 284.129,84.064 283.129,81.3973 282.5,78.5C 282.435,78.0618 282.601,77.7284 283,77.5C 284.815,78.2444 286.648,78.9111 288.5,79.5 Z"/></g>
<g><path style="opacity:1" fill="#f5c420" d="M 44.5,79.5 C 44.5,80.5 44.5,81.5 44.5,82.5C 47.2788,82.2786 49.9455,82.612 52.5,83.5C 52.4431,84.609 52.1098,85.609 51.5,86.5C 48.2869,86.81 45.2869,86.4767 42.5,85.5C 42.595,83.2143 43.2616,81.2143 44.5,79.5 Z"/></g>
<g><path style="opacity:1" fill="#f3c221" d="M 266.5,81.5 C 267.404,82.209 267.737,83.209 267.5,84.5C 265.365,86.369 262.698,87.0356 259.5,86.5C 258.596,85.791 258.263,84.791 258.5,83.5C 261.002,82.2215 263.502,82.2215 266,83.5C 266.464,82.9056 266.631,82.2389 266.5,81.5 Z"/></g>
<g><path style="opacity:1" fill="#f4b226" d="M 28.5,82.5 C 28.369,83.2389 28.5357,83.9056 29,84.5C 31.8316,83.2138 34.6649,83.2138 37.5,84.5C 37.1667,85.8333 36.8333,87.1667 36.5,88.5C 33.1667,88.5 29.8333,88.5 26.5,88.5C 26.595,86.2143 27.2616,84.2143 28.5,82.5 Z"/></g>
<g><path style="opacity:1" fill="#f4b624" d="M 57.5,83.5 C 60.1897,83.6613 63.1897,83.6613 66.5,83.5C 66.5674,84.9587 66.2341,86.2921 65.5,87.5C 62.5525,87.2229 59.7191,87.5562 57,88.5C 56.5357,87.9056 56.369,87.2389 56.5,86.5C 56.2627,85.209 56.596,84.209 57.5,83.5 Z"/></g>
<g><path style="opacity:1" fill="#f1ad26" d="M 121.5,85.5 C 126.167,85.5 130.833,85.5 135.5,85.5C 135.068,86.7095 134.401,87.7095 133.5,88.5C 128.93,87.559 124.263,87.2256 119.5,87.5C 119.833,86.5 120.5,85.8333 121.5,85.5 Z"/></g>
<g><path style="opacity:1" fill="#fbba25" d="M 165.5,84.5 C 165.657,85.8734 165.49,87.2068 165,88.5C 162.619,87.565 160.119,87.2317 157.5,87.5C 157.5,87.1667 157.5,86.8333 157.5,86.5C 157.5,85.8333 157.5,85.1667 157.5,84.5C 160.167,83.1667 162.833,83.1667 165.5,84.5 Z"/></g>
<g><path style="opacity:1" fill="#f9ba24" d="M 228.5,82.5 C 229.404,83.209 229.737,84.209 229.5,85.5C 227.012,87.3878 224.012,88.0545 220.5,87.5C 220.5,86.5 220.5,85.5 220.5,84.5C 223.083,82.5672 225.75,81.9005 228.5,82.5 Z"/></g>
<g><path style="opacity:1" fill="#eeab27" d="M 240.5,82.5 C 241.434,83.5676 241.768,84.901 241.5,86.5C 241.5,87.5 241.5,88.5 241.5,89.5C 238.833,89.5 236.167,89.5 233.5,89.5C 232.659,87.6208 232.325,85.6208 232.5,83.5C 235.119,83.2317 237.619,83.565 240,84.5C 240.464,83.9056 240.631,83.2389 240.5,82.5 Z"/></g>
<g><path style="opacity:1" fill="#2d251f" d="M 182.5,83.5 C 182.5,85.1667 182.5,86.8333 182.5,88.5C 183.159,91.4552 183.492,94.4552 183.5,97.5C 183.5,99.8333 183.5,102.167 183.5,104.5C 182.167,104.5 180.833,104.5 179.5,104.5C 179.5,103.833 179.5,103.167 179.5,102.5C 179.125,96.9908 178.458,91.6575 177.5,86.5C 177.5,83.5 177.5,80.5 177.5,77.5C 178.833,77.5 180.167,77.5 181.5,77.5C 181.205,79.7354 181.539,81.7354 182.5,83.5 Z"/></g>
<g><path style="opacity:1" fill="#efaf26" d="M 189.5,78.5 C 190.479,81.6248 190.813,84.9581 190.5,88.5C 187.833,88.5 185.167,88.5 182.5,88.5C 182.5,86.8333 182.5,85.1667 182.5,83.5C 184.717,82.6314 187.05,82.298 189.5,82.5C 189.5,81.1667 189.5,79.8333 189.5,78.5 Z"/></g>
<g><path style="opacity:1" fill="#f5ad28" d="M 279.5,82.5 C 280.738,84.2143 281.405,86.2143 281.5,88.5C 279.052,89.4731 276.385,89.8064 273.5,89.5C 272.637,87.5786 271.971,85.5786 271.5,83.5C 274.385,83.8064 277.052,83.4731 279.5,82.5 Z"/></g>
<g><path style="opacity:1" fill="#f49a2d" d="M 177.5,86.5 C 178.458,91.6575 179.125,96.9908 179.5,102.5C 178.566,101.432 178.232,100.099 178.5,98.5C 175.833,98.5 173.167,98.5 170.5,98.5C 169.57,94.6002 169.237,90.6002 169.5,86.5C 172.574,85.4224 175.241,85.4224 177.5,86.5 Z"/></g>
<g><path style="opacity:1" fill="#ef932e" d="M 267.5,84.5 C 269.074,87.9065 270.074,91.5732 270.5,95.5C 267.631,96.391 264.964,96.7243 262.5,96.5C 260.757,93.5048 259.757,90.1715 259.5,86.5C 262.698,87.0356 265.365,86.369 267.5,84.5 Z"/></g>
<g><path style="opacity:1" fill="#f0952e" d="M 72.5,83.5 C 74.6353,85.369 77.3019,86.0356 80.5,85.5C 79.6322,89.3143 78.6322,92.981 77.5,96.5C 75.3647,94.631 72.6981,93.9644 69.5,94.5C 70.0552,90.6032 71.0552,86.9365 72.5,83.5 Z"/></g>
<g><path style="opacity:1" fill="#f2962e" d="M 42.5,85.5 C 45.2869,86.4767 48.2869,86.81 51.5,86.5C 50.6109,90.4311 49.2775,94.0977 47.5,97.5C 44.0613,97.2529 40.728,97.5863 37.5,98.5C 38.9373,93.9787 40.604,89.6453 42.5,85.5 Z"/></g>
<g><path style="opacity:1" fill="#f19b2c" d="M 200.5,78.5 C 202.059,85.2859 203.059,92.2859 203.5,99.5C 200.721,99.7214 198.054,99.388 195.5,98.5C 194.671,93.8689 194.004,89.2022 193.5,84.5C 195.717,83.6314 198.05,83.298 200.5,83.5C 200.5,81.8333 200.5,80.1667 200.5,78.5 Z"/></g>
<g><path style="opacity:1" fill="#f1982d" d="M 212.5,81.5 C 213.801,85.9426 214.468,90.6093 214.5,95.5C 216.833,95.5 219.167,95.5 221.5,95.5C 221.721,92.7212 221.388,90.0545 220.5,87.5C 224.012,88.0545 227.012,87.3878 229.5,85.5C 230.687,88.9458 231.354,92.6125 231.5,96.5C 223.061,97.116 214.894,96.4494 207,94.5C 206.536,95.0944 206.369,95.7611 206.5,96.5C 205.383,92.7051 204.717,88.7051 204.5,84.5C 207.002,83.2215 209.502,83.2215 212,84.5C 212.483,83.552 212.649,82.552 212.5,81.5 Z"/></g>
<g><path style="opacity:1" fill="#e7952c" d="M 153.5,77.5 C 153.5,86.5 153.5,95.5 153.5,104.5C 152.596,103.791 152.263,102.791 152.5,101.5C 152.663,99.1432 152.497,96.8098 152,94.5C 149.502,95.7785 147.002,95.7785 144.5,94.5C 144.5,90.8333 144.5,87.1667 144.5,83.5C 147.119,83.2317 149.619,83.565 152,84.5C 152.186,81.9644 152.686,79.631 153.5,77.5 Z"/></g>
<g><path style="opacity:1" fill="#1c1a1e" d="M 153.5,77.5 C 154.5,77.5 155.5,77.5 156.5,77.5C 156.19,80.7131 156.523,83.7131 157.5,86.5C 157.5,86.8333 157.5,87.1667 157.5,87.5C 157.5,91.1667 157.5,94.8333 157.5,98.5C 157.5,100.5 157.5,102.5 157.5,104.5C 156.167,104.5 154.833,104.5 153.5,104.5C 153.5,95.5 153.5,86.5 153.5,77.5 Z"/></g>
<g><path style="opacity:1" fill="#ea9a2b" d="M 165.5,76.5 C 166.492,83.9818 166.825,91.6484 166.5,99.5C 163.609,98.5975 160.609,98.2641 157.5,98.5C 157.5,94.8333 157.5,91.1667 157.5,87.5C 160.119,87.2317 162.619,87.565 165,88.5C 165.49,87.2068 165.657,85.8734 165.5,84.5C 165.5,81.8333 165.5,79.1667 165.5,76.5 Z"/></g>
<g><path style="opacity:1" fill="#f0e614" d="M 16.5,83.5 C 17.9952,83.9887 19.3285,84.6554 20.5,85.5C 16.9755,94.7168 13.3089,103.883 9.5,113C 37.1647,113.5 64.8313,113.667 92.5,113.5C 91.3492,118.442 90.3492,123.442 89.5,128.5C 88.9569,128.56 88.6236,128.893 88.5,129.5C 106.662,130.827 124.662,130.827 142.5,129.5C 142.5,124.167 142.5,118.833 142.5,113.5C 190.5,113.5 238.5,113.5 286.5,113.5C 288.521,111.307 290.188,108.807 291.5,106C 289.184,99.5553 287.184,93.0553 285.5,86.5C 287.167,87.8333 288.833,87.8333 290.5,86.5C 293.299,93.0626 295.633,99.8959 297.5,107C 295.861,111.94 293.195,116.273 289.5,120C 242.835,120.5 196.168,120.667 149.5,120.5C 148.512,125.64 148.179,130.974 148.5,136.5C 126.141,137.156 104.141,136.489 82.5,134.5C 83.5,129.833 84.5,125.167 85.5,120.5C 57.6516,120.164 29.9849,119.164 2.5,117.5C 6.65437,105.871 11.321,94.5374 16.5,83.5 Z"/></g>
<g><path style="opacity:1" fill="#edc61e" d="M 195.5,98.5 C 198.054,99.388 200.721,99.7214 203.5,99.5C 204.341,101.379 204.675,103.379 204.5,105.5C 201.936,105.021 199.436,104.355 197,103.5C 196.51,104.793 196.343,106.127 196.5,107.5C 195.523,104.713 195.19,101.713 195.5,98.5 Z"/></g>
<g><path style="opacity:1" fill="#f6c71f" d="M 23.5,94.5 C 26.8333,95.8333 30.1667,95.8333 33.5,94.5C 32.6261,97.7893 31.9595,101.123 31.5,104.5C 35.251,104.376 37.251,102.376 37.5,98.5C 40.728,97.5863 44.0613,97.2529 47.5,97.5C 47.691,101.288 46.3577,104.288 43.5,106.5C 39.3656,105.515 35.0323,105.182 30.5,105.5C 30.6495,104.448 30.4828,103.448 30,102.5C 26.8506,104.362 23.3506,105.029 19.5,104.5C 20.6389,101.082 21.9723,97.7487 23.5,94.5 Z"/></g>
<g><path style="opacity:1" fill="#e7bd1f" d="M 243.5,95.5 C 244.768,97.9052 245.435,100.572 245.5,103.5C 250.695,103.179 255.695,103.513 260.5,104.5C 252.833,104.5 245.167,104.5 237.5,104.5C 237.167,100.5 236.833,100.5 236.5,104.5C 235.527,102.052 235.194,99.3854 235.5,96.5C 237.964,96.7243 240.631,96.391 243.5,95.5 Z"/></g>
<g><path style="opacity:1" fill="#f4cb1d" d="M 183.5,97.5 C 186.054,98.388 188.721,98.7214 191.5,98.5C 192.833,101.167 192.833,103.833 191.5,106.5C 189.158,105.992 186.991,104.992 185,103.5C 183.38,105.632 181.546,105.965 179.5,104.5C 180.833,104.5 182.167,104.5 183.5,104.5C 183.5,102.167 183.5,99.8333 183.5,97.5 Z"/></g>
<g><path style="opacity:1" fill="#edba21" d="M 231.5,96.5 C 232.612,98.5994 233.279,100.933 233.5,103.5C 230.833,103.5 228.167,103.5 225.5,103.5C 225.5,104.833 225.5,106.167 225.5,107.5C 224.596,106.791 224.263,105.791 224.5,104.5C 221.302,103.964 218.635,104.631 216.5,106.5C 215.596,105.791 215.263,104.791 215.5,103.5C 218.518,103.665 221.518,103.498 224.5,103C 218.843,102.501 213.176,102.334 207.5,102.5C 207.5,104.167 207.5,105.833 207.5,107.5C 206.566,106.432 206.232,105.099 206.5,103.5C 206.5,101.167 206.5,98.8333 206.5,96.5C 206.369,95.7611 206.536,95.0944 207,94.5C 214.894,96.4494 223.061,97.116 231.5,96.5 Z"/></g>
<g><path style="opacity:1" fill="#f4b923" d="M 270.5,95.5 C 271.738,97.2143 272.405,99.2143 272.5,101.5C 269.382,101.768 266.716,102.768 264.5,104.5C 263.469,102.039 262.802,99.3725 262.5,96.5C 264.964,96.7243 267.631,96.391 270.5,95.5 Z"/></g>
<g><path style="opacity:1" fill="#f5b923" d="M 144.5,94.5 C 147.002,95.7785 149.502,95.7785 152,94.5C 152.497,96.8098 152.663,99.1432 152.5,101.5C 149.998,102.779 147.498,102.779 145,101.5C 144.51,102.793 144.343,104.127 144.5,105.5C 143.881,102.023 143.881,98.3559 144.5,94.5 Z"/></g>
<g><path style="opacity:1" fill="#f6b724" d="M 127.5,95.5 C 125.471,97.8585 123.471,100.192 121.5,102.5C 117.27,101.78 112.937,101.113 108.5,100.5C 109.833,98.8333 111.167,97.1667 112.5,95.5C 117.631,94.2492 122.631,94.2492 127.5,95.5 Z"/></g>
<g><path style="opacity:1" fill="#f6a12c" d="M 182.5,88.5 C 185.167,88.5 187.833,88.5 190.5,88.5C 191.479,91.6248 191.813,94.9581 191.5,98.5C 188.721,98.7214 186.054,98.388 183.5,97.5C 183.492,94.4552 183.159,91.4552 182.5,88.5 Z"/></g>
<g><path style="opacity:1" fill="#f5a22b" d="M 281.5,88.5 C 283.405,92.2157 284.739,96.2157 285.5,100.5C 282.833,100.5 280.167,100.5 277.5,100.5C 275.796,97.0615 274.462,93.3948 273.5,89.5C 276.385,89.8064 279.052,89.4731 281.5,88.5 Z"/></g>
<g><path style="opacity:1" fill="#f3ad27" d="M 69.5,94.5 C 72.6981,93.9644 75.3647,94.631 77.5,96.5C 77.7406,98.8984 77.0739,100.898 75.5,102.5C 75.631,101.761 75.4643,101.094 75,100.5C 72.67,102.032 70.67,101.698 69,99.5C 68.7679,100.737 68.2679,101.737 67.5,102.5C 67.5838,99.6726 68.2504,97.006 69.5,94.5 Z"/></g>
<g><path style="opacity:1" fill="#f1962d" d="M 241.5,86.5 C 242.657,89.2727 243.324,92.2727 243.5,95.5C 240.631,96.391 237.964,96.7243 235.5,96.5C 234.076,94.4855 233.41,92.1522 233.5,89.5C 236.167,89.5 238.833,89.5 241.5,89.5C 241.5,88.5 241.5,87.5 241.5,86.5 Z"/></g>
<g><path style="opacity:1" fill="#f3932f" d="M 26.5,88.5 C 29.8333,88.5 33.1667,88.5 36.5,88.5C 35.4861,90.5739 34.4861,92.5739 33.5,94.5C 30.1667,95.8333 26.8333,95.8333 23.5,94.5C 23.9925,92.1815 24.9925,90.1815 26.5,88.5 Z"/></g>
<g><path style="opacity:1" fill="#f49130" d="M 119.5,87.5 C 124.263,87.2256 128.93,87.559 133.5,88.5C 131.471,90.8585 129.471,93.1918 127.5,95.5C 122.631,94.2492 117.631,94.2492 112.5,95.5C 114.833,92.8333 117.167,90.1667 119.5,87.5 Z"/></g>
<g><path style="opacity:1" fill="#ed942e" d="M 56.5,86.5 C 56.369,87.2389 56.5357,87.9056 57,88.5C 59.7191,87.5562 62.5525,87.2229 65.5,87.5C 64.3391,92.3044 63.0058,96.9711 61.5,101.5C 61.5,100.5 61.5,99.5 61.5,98.5C 58.2896,98.2492 55.2896,98.2492 52.5,98.5C 53.3198,94.2245 54.6532,90.2245 56.5,86.5 Z"/></g>
<g><path style="opacity:1" fill="#f1cb1d" d="M 61.5,101.5 C 61.5,102.5 61.5,103.5 61.5,104.5C 63.8863,104.741 65.8863,104.075 67.5,102.5C 68.2679,101.737 68.7679,100.737 69,99.5C 70.67,101.698 72.67,102.032 75,100.5C 75.4643,101.094 75.631,101.761 75.5,102.5C 75.7709,104.38 75.1042,105.713 73.5,106.5C 69.3656,105.515 65.0323,105.182 60.5,105.5C 60.6495,104.448 60.4828,103.448 60,102.5C 57.1684,103.786 54.3351,103.786 51.5,102.5C 51.4326,101.041 51.7659,99.7079 52.5,98.5C 55.2896,98.2492 58.2896,98.2492 61.5,98.5C 61.5,99.5 61.5,100.5 61.5,101.5 Z"/></g>
<g><path style="opacity:1" fill="#f7e516" d="M 51.5,102.5 C 54.3351,103.786 57.1684,103.786 60,102.5C 60.4828,103.448 60.6495,104.448 60.5,105.5C 65.0323,105.182 69.3656,105.515 73.5,106.5C 72.4264,107.885 71.0931,109.051 69.5,110C 65.1667,110.667 60.8333,110.667 56.5,110C 53.758,108.114 52.0913,105.614 51.5,102.5 Z"/></g>
<g><path style="opacity:1" fill="#f4dd18" d="M 157.5,98.5 C 160.609,98.2641 163.609,98.5975 166.5,99.5C 166.5,101.833 166.5,104.167 166.5,106.5C 164.704,107.793 163.037,109.293 161.5,111C 157.514,111.499 153.514,111.666 149.5,111.5C 147.833,109.5 146.167,107.5 144.5,105.5C 144.343,104.127 144.51,102.793 145,101.5C 147.498,102.779 149.998,102.779 152.5,101.5C 152.263,102.791 152.596,103.791 153.5,104.5C 154.833,104.5 156.167,104.5 157.5,104.5C 157.5,102.5 157.5,100.5 157.5,98.5 Z"/></g>
<g><path style="opacity:1" fill="#f3dc18" d="M 170.5,98.5 C 173.167,98.5 175.833,98.5 178.5,98.5C 178.232,100.099 178.566,101.432 179.5,102.5C 179.5,103.167 179.5,103.833 179.5,104.5C 181.546,105.965 183.38,105.632 185,103.5C 186.991,104.992 189.158,105.992 191.5,106.5C 190.167,108.167 188.833,109.833 187.5,111.5C 181.833,111.5 176.167,111.5 170.5,111.5C 170.5,107.167 170.5,102.833 170.5,98.5 Z"/></g>
<g><path style="opacity:1" fill="#f2e415" d="M 43.5,106.5 C 41.8624,107.657 40.1957,108.824 38.5,110C 31.5079,110.5 24.5079,110.666 17.5,110.5C 17.2594,108.102 17.9261,106.102 19.5,104.5C 23.3506,105.029 26.8506,104.362 30,102.5C 30.4828,103.448 30.6495,104.448 30.5,105.5C 35.0323,105.182 39.3656,105.515 43.5,106.5 Z"/></g>
<g><path style="opacity:1" fill="#fef113" d="M 204.5,105.5 C 204.5,106.5 204.5,107.5 204.5,108.5C 202.365,110.369 199.698,111.036 196.5,110.5C 196.5,109.5 196.5,108.5 196.5,107.5C 196.343,106.127 196.51,104.793 197,103.5C 199.436,104.355 201.936,105.021 204.5,105.5 Z"/></g>
<g><path style="opacity:1" fill="#f1df17" d="M 216.5,106.5 C 216.5,108.167 216.5,109.833 216.5,111.5C 213.5,111.5 210.5,111.5 207.5,111.5C 207.5,110.167 207.5,108.833 207.5,107.5C 207.5,105.833 207.5,104.167 207.5,102.5C 213.176,102.334 218.843,102.501 224.5,103C 221.518,103.498 218.518,103.665 215.5,103.5C 215.263,104.791 215.596,105.791 216.5,106.5 Z"/></g>
<g><path style="opacity:1" fill="#eddf16" d="M 233.5,103.5 C 234.291,106.115 234.957,108.782 235.5,111.5C 232.167,111.5 228.833,111.5 225.5,111.5C 225.5,110.167 225.5,108.833 225.5,107.5C 225.5,106.167 225.5,104.833 225.5,103.5C 228.167,103.5 230.833,103.5 233.5,103.5 Z"/></g>
<g><path style="opacity:1" fill="#fced14" d="M 260.5,104.5 C 261.234,105.708 261.567,107.041 261.5,108.5C 256.265,110.45 250.598,111.117 244.5,110.5C 241.437,108.975 238.77,106.975 236.5,104.5C 236.833,100.5 237.167,100.5 237.5,104.5C 245.167,104.5 252.833,104.5 260.5,104.5 Z"/></g>
<g><path style="opacity:1" fill="#f0de17" d="M 277.5,100.5 C 280.167,100.5 282.833,100.5 285.5,100.5C 286.434,101.772 287.101,103.272 287.5,105C 286.287,107.262 284.954,109.429 283.5,111.5C 279.833,111.5 276.167,111.5 272.5,111.5C 269.833,109.167 267.167,106.833 264.5,104.5C 266.716,102.768 269.382,101.768 272.5,101.5C 273.404,102.209 273.737,103.209 273.5,104.5C 274.833,104.5 276.167,104.5 277.5,104.5C 277.5,103.167 277.5,101.833 277.5,100.5 Z"/></g>
<g><path style="opacity:1" fill="#8e8519" d="M 261.5,108.5 C 262.404,109.209 262.737,110.209 262.5,111.5C 256.5,111.5 250.5,111.5 244.5,111.5C 244.5,111.167 244.5,110.833 244.5,110.5C 250.598,111.117 256.265,110.45 261.5,108.5 Z"/></g>
<g><path style="opacity:1" fill="#11111d" d="M 206.5,103.5 C 206.232,105.099 206.566,106.432 207.5,107.5C 207.5,108.833 207.5,110.167 207.5,111.5C 210.5,111.5 213.5,111.5 216.5,111.5C 216.5,109.833 216.5,108.167 216.5,106.5C 218.635,104.631 221.302,103.964 224.5,104.5C 224.263,105.791 224.596,106.791 225.5,107.5C 225.5,108.833 225.5,110.167 225.5,111.5C 228.833,111.5 232.167,111.5 235.5,111.5C 238.5,112.833 241.5,112.833 244.5,111.5C 250.5,111.5 256.5,111.5 262.5,111.5C 265.833,112.833 269.167,112.833 272.5,111.5C 276.167,111.5 279.833,111.5 283.5,111.5C 284.5,112.167 285.5,112.833 286.5,113.5C 238.5,113.5 190.5,113.5 142.5,113.5C 144.833,112.833 147.167,112.167 149.5,111.5C 153.514,111.666 157.514,111.499 161.5,111C 163.037,109.293 164.704,107.793 166.5,106.5C 166.938,106.435 167.272,106.601 167.5,107C 160.862,112.362 161.862,113.862 170.5,111.5C 176.167,111.5 181.833,111.5 187.5,111.5C 190.5,112.833 193.5,112.833 196.5,111.5C 199.5,111.5 202.5,111.5 205.5,111.5C 205.5,110.5 205.5,109.5 205.5,108.5C 205.216,106.585 205.549,104.919 206.5,103.5 Z"/></g>
<g><path style="opacity:1" fill="#9c921c" d="M 204.5,108.5 C 204.833,108.5 205.167,108.5 205.5,108.5C 205.5,109.5 205.5,110.5 205.5,111.5C 202.5,111.5 199.5,111.5 196.5,111.5C 196.5,111.167 196.5,110.833 196.5,110.5C 199.698,111.036 202.365,110.369 204.5,108.5 Z"/></g>
<g><path style="opacity:1" fill="#fcef13" d="M 108.5,100.5 C 112.937,101.113 117.27,101.78 121.5,102.5C 119.213,106.122 116.547,109.455 113.5,112.5C 112.957,112.56 112.624,112.893 112.5,113.5C 121.141,114.498 129.808,114.831 138.5,114.5C 139.483,118.298 139.817,122.298 139.5,126.5C 124.167,126.5 108.833,126.5 93.5,126.5C 94.3456,121.778 95.5123,117.111 97,112.5C 101.065,108.605 104.898,104.605 108.5,100.5 Z"/></g>
<g><path style="opacity:1" fill="#7f7619" d="M 113.5,112.5 C 121.833,113.167 130.167,113.833 138.5,114.5C 129.808,114.831 121.141,114.498 112.5,113.5C 112.624,112.893 112.957,112.56 113.5,112.5 Z"/></g>
<g><path style="opacity:1" fill="#d7cb19" d="M 2.5,117.5 C 29.9849,119.164 57.6516,120.164 85.5,120.5C 57.5,120.5 29.5,120.5 1.5,120.5C 1.26269,119.209 1.59603,118.209 2.5,117.5 Z"/></g>
<g><path style="opacity:1" fill="#3b371d" d="M 89.5,128.5 C 106.992,129.497 124.659,129.83 142.5,129.5C 124.662,130.827 106.662,130.827 88.5,129.5C 88.6236,128.893 88.9569,128.56 89.5,128.5 Z"/></g>
<g><path style="opacity:1" fill="#a99f22" d="M 149.5,120.5 C 149.5,126.167 149.5,131.833 149.5,137.5C 126.833,137.5 104.167,137.5 81.5,137.5C 81.2627,136.209 81.596,135.209 82.5,134.5C 104.141,136.489 126.141,137.156 148.5,136.5C 148.179,130.974 148.512,125.64 149.5,120.5 Z"/></g>
</svg>
